<svg xmlns="http://www.w3.org/2000/svg" xmlns:xlink="http://www.w3.org/1999/xlink" width="1000px" height="1000px" viewBox="0 0 1000 1000" zoomAndPan="disable">
    <style type="text/css"><![CDATA[
		line {
			stroke: rgba(75,75,75,0.9);
			stroke-width: 1px;
		}

        polygon {
          fill: rgb(75,75,75);
        }

		polygon.center {
            opacity: 0.8;
		}

		polygon.surround {
            opacity: 0.2;
		}
    ]]></style>
	<polygon class="center" points="150,400 500,250 850,400 500,750" />
    <polygon class="surround" points="150,400 500,250 500,0 0,0 0,400" />
    <polygon class="surround" points="500,250 850,400 1000,400 1000,0 500,0" />
    <polygon class="surround" points="850,400 1000,400 1000,1000 500,1000 500,750" />
    <polygon class="surround" points="500,1000 500,750 150,400 0,400 0,1000" />
	<line x1="500" y1="0" x2="500" y2="250" />
  	<line x1="500" y1="750" x2="500" y2="1000" />
	<line x1="0" y1="400" x2="150" y2="400" />
  	<line x1="850" y1="400" x2="1000" y2="400" />
</svg>
